<svg id="Layer_1" data-name="Layer 1" xmlns="http://www.w3.org/2000/svg" viewBox="0 0 1663.47 631.2"><defs><style>.cls-1{fill:#89da3e;}.cls-2{fill:#003b5c;}</style></defs><title>Logo_Indigitall</title><path class="cls-1" d="M265.51,257.27a17.36,17.36,0,1,1,17.25,17.48A17.37,17.37,0,0,1,265.51,257.27Zm29.9,145.59v-115H270.34v115Z"/><path class="cls-1" d="M437.09,333.63v69.23H412V335.7c0-17.48-10.35-29-27.6-29s-29,11.5-29,29v67.16h-25.3V317.07c0-6.21-.92-10.12-5.29-10.12a5.94,5.94,0,0,0-3.68,1.38l-1.61-.69-3.68-17,.92-1.61c3.22-2.3,8.28-3.91,14.26-3.91,10.58,0,17.71,5.29,20.7,14.49,9-9,22.08-14.49,37.49-14.49C418.46,285.1,437.09,304.88,437.09,333.63Z"/><path class="cls-1" d="M593.49,400.1l-.92,1.61a24,24,0,0,1-13.8,3.91c-11,0-18.63-6.21-21.39-16.56-9.89,10.12-23.69,16.56-40.71,16.56-34.27,0-58-26.68-58-60.26,0-33.81,23.92-60.26,57.73-60.26a57.36,57.36,0,0,1,37.95,14V249.45L577.62,246l1.61,1.15v126.5c0,6.21,1.15,10.12,5.29,10.12a5.93,5.93,0,0,0,3.68-1.38l1.61.69Zm-37-54.74c0-25.3-16.33-38.41-35.88-38.41-22.31,0-36.34,17.25-36.34,38.41s14,38.41,36.34,38.41C540.36,383.77,556.46,370.43,556.46,345.36Z"/><path class="cls-1" d="M609.13,257.27a17.37,17.37,0,1,1,17.25,17.48A17.37,17.37,0,0,1,609.13,257.27ZM639,402.86v-115H614v115Z"/><path class="cls-1" d="M795.43,290.62l-3.68,17-1.61.69a5.93,5.93,0,0,0-3.68-1.38c-4.37,0-5.29,3.91-5.29,10.12v65.78c0,37.95-27.83,55-60.26,55-23.46,0-42.09-9.2-53.36-23.46v-1.61l11.5-13.8h1.61C689.4,410.22,703.43,418,721.14,418c19.78,0,35.88-10.12,35.88-32.2v-5.29c-9.66,8-22.77,12.88-37.49,12.88-32.66,0-56.58-23.46-56.58-54.28,0-30.59,23.92-54,56.81-54,16.1,0,29.67,5.75,39.79,15,2.76-9.43,10.12-15,20.93-15,6,0,10.81,1.61,14,3.91Zm-37.95,48.76c0-20-14.26-34.5-34.73-34.5s-34.5,14.49-34.5,34.27c0,20,13.8,34.27,34.73,34.27C743.45,373.42,757.48,359.16,757.48,339.38Z"/><path class="cls-1" d="M810.84,257.27a17.37,17.37,0,1,1,17.25,17.48A17.37,17.37,0,0,1,810.84,257.27Zm29.9,145.59v-115H815.67v115Z"/><path class="cls-1" d="M940.55,397.57l-.69,1.84c-6.21,4.37-13.8,6.21-21.39,6.21-22.08,0-38.87-15.18-38.87-41.17v-57H860.05V287.86H879.6V254.05l23.23-3.45,1.84,1.15v36.11h35v19.55h-35v55.2c0,13.57,6.21,21.39,17.25,21.39,3.68,0,6.44-1.15,9.66-3.22l1.61.92Z"/><path class="cls-1" d="M1072.11,400.1l-.92,1.61a24,24,0,0,1-13.8,3.91c-10.35,0-17.94-5.52-20.93-14.95-9.89,9.43-24.15,14.95-39.33,14.95-23.69,0-45.54-13.11-45.54-37.95,0-25.53,23-37.26,51.29-37.26a86.65,86.65,0,0,1,30.36,5.29v-6.44c0-16.56-15-24.61-30.82-24.61-13.11,0-23.23,5.52-31.28,13.34H969.3l-12.65-12v-1.84c12.42-12,28.29-19.09,48.07-19.09,24.84,0,53.13,11,53.13,44.16v44.39c0,6.21,1.15,10.12,5.29,10.12a5.93,5.93,0,0,0,3.68-1.38l1.61.69Zm-38.87-47.38a77.27,77.27,0,0,0-27.14-5.29c-18.17,0-29.44,7.82-29.44,20.24,0,13.11,12.42,19.55,25.53,19.55,15.87,0,31-9.89,31-26Z"/><path class="cls-1" d="M1091.43,249.45l23.23-3.45,1.84,1.15v126.5c0,6.21.92,10.12,5.06,10.12a6.09,6.09,0,0,0,3.91-1.38l1.61.69,3.68,17-.92,1.61c-3.22,2.3-8.28,3.91-14.49,3.91-15.87,0-23.92-10.58-23.92-26.45Z"/><path class="cls-1" d="M1151,249.45l23.23-3.45,1.84,1.15v126.5c0,6.21.92,10.12,5.06,10.12a6.09,6.09,0,0,0,3.91-1.38l1.61.69,3.68,17-.92,1.61c-3.22,2.3-8.28,3.91-14.49,3.91C1159,405.62,1151,395,1151,379.17Z"/><path class="cls-1" d="M265.51,257.05a17.36,17.36,0,1,1,17.25,17.48A17.37,17.37,0,0,1,265.51,257.05Zm29.9,145.59v-115H270.34v115Z"/><path class="cls-1" d="M437.09,333.41v69.23H412V335.48c0-17.48-10.35-29-27.6-29s-29,11.5-29,29v67.16h-25.3V316.85c0-6.21-.92-10.12-5.29-10.12a5.94,5.94,0,0,0-3.68,1.38l-1.61-.69-3.68-17,.92-1.61c3.22-2.3,8.28-3.91,14.26-3.91,10.58,0,17.71,5.29,20.7,14.49,9-9,22.08-14.49,37.49-14.49C418.46,284.88,437.09,304.66,437.09,333.41Z"/><path class="cls-1" d="M593.49,399.88l-.92,1.61a24,24,0,0,1-13.8,3.91c-11,0-18.63-6.21-21.39-16.56-9.89,10.12-23.69,16.56-40.71,16.56-34.27,0-58-26.68-58-60.26,0-33.81,23.92-60.26,57.73-60.26a57.36,57.36,0,0,1,37.95,14V249.23l23.23-3.45,1.61,1.15v126.5c0,6.21,1.15,10.12,5.29,10.12a5.93,5.93,0,0,0,3.68-1.38l1.61.69Zm-37-54.74c0-25.3-16.33-38.41-35.88-38.41-22.31,0-36.34,17.25-36.34,38.41s14,38.41,36.34,38.41C540.36,383.55,556.46,370.21,556.46,345.14Z"/><path class="cls-1" d="M609.13,257.05a17.37,17.37,0,1,1,17.25,17.48A17.37,17.37,0,0,1,609.13,257.05ZM639,402.64v-115H614v115Z"/><path class="cls-1" d="M795.43,290.4l-3.68,17-1.61.69a5.93,5.93,0,0,0-3.68-1.38c-4.37,0-5.29,3.91-5.29,10.12v65.78c0,37.95-27.83,55-60.26,55-23.46,0-42.09-9.2-53.36-23.46v-1.61l11.5-13.8h1.61c8.74,11.27,22.77,19.09,40.48,19.09,19.78,0,35.88-10.12,35.88-32.2v-5.29c-9.66,8-22.77,12.88-37.49,12.88-32.66,0-56.58-23.46-56.58-54.28,0-30.59,23.92-54,56.81-54,16.1,0,29.67,5.75,39.79,15,2.76-9.43,10.12-15,20.93-15,6,0,10.81,1.61,14,3.91Zm-37.95,48.76c0-20-14.26-34.5-34.73-34.5s-34.5,14.49-34.5,34.27c0,20,13.8,34.27,34.73,34.27C743.45,373.2,757.48,358.94,757.48,339.16Z"/><path class="cls-1" d="M810.84,257.05a17.37,17.37,0,1,1,17.25,17.48A17.37,17.37,0,0,1,810.84,257.05Zm29.9,145.59v-115H815.67v115Z"/><path class="cls-1" d="M940.55,397.35l-.69,1.84c-6.21,4.37-13.8,6.21-21.39,6.21-22.08,0-38.87-15.18-38.87-41.17v-57H860.05V287.64H879.6V253.83l23.23-3.45,1.84,1.15v36.11h35v19.55h-35v55.2c0,13.57,6.21,21.39,17.25,21.39,3.68,0,6.44-1.15,9.66-3.22l1.61.92Z"/><path class="cls-1" d="M1072.11,399.88l-.92,1.61a24,24,0,0,1-13.8,3.91c-10.35,0-17.94-5.52-20.93-14.95-9.89,9.43-24.15,14.95-39.33,14.95-23.69,0-45.54-13.11-45.54-37.95,0-25.53,23-37.26,51.29-37.26a86.65,86.65,0,0,1,30.36,5.29V329c0-16.56-15-24.61-30.82-24.61-13.11,0-23.23,5.52-31.28,13.34H969.3l-12.65-12V304c12.42-12,28.29-19.09,48.07-19.09,24.84,0,53.13,11,53.13,44.16v44.39c0,6.21,1.15,10.12,5.29,10.12a5.93,5.93,0,0,0,3.68-1.38l1.61.69Zm-38.87-47.38a77.27,77.27,0,0,0-27.14-5.29c-18.17,0-29.44,7.82-29.44,20.24,0,13.11,12.42,19.55,25.53,19.55,15.87,0,31-9.89,31-26Z"/><path class="cls-1" d="M1091.43,249.23l23.23-3.45,1.84,1.15v126.5c0,6.21.92,10.12,5.06,10.12a6.09,6.09,0,0,0,3.91-1.38l1.61.69,3.68,17-.92,1.61c-3.22,2.3-8.28,3.91-14.49,3.91-15.87,0-23.92-10.58-23.92-26.45Z"/><path class="cls-1" d="M1151,249.23l23.23-3.45,1.84,1.15v126.5c0,6.21.92,10.12,5.06,10.12a6.09,6.09,0,0,0,3.91-1.38l1.61.69,3.68,17-.92,1.61c-3.22,2.3-8.28,3.91-14.49,3.91-15.87,0-23.92-10.58-23.92-26.45Z"/><path class="cls-1" d="M1429.53,144a35.94,35.94,0,1,0,35.92,36A36,36,0,0,0,1429.53,144Z"/><path class="cls-2" d="M1375.95,359.56h-50.14a76.28,76.28,0,0,1-76.2-76.2V233.22a76.28,76.28,0,0,1,76.2-76.2h40.56a12,12,0,1,1,0,24h-40.56a52.29,52.29,0,0,0-52.24,52.24v50.14a52.29,52.29,0,0,0,52.24,52.24h50.14a52.29,52.29,0,0,0,52.24-52.24V242.8a12,12,0,0,1,24,0v40.56A76.28,76.28,0,0,1,1375.95,359.56Z"/></svg>